<svg version="1.1" id="Layer_1" xmlns="http://www.w3.org/2000/svg" xmlns:xlink="http://www.w3.org/1999/xlink" x="0px" y="0px"
	 width="100%" viewBox="0 0 128 128" enable-background="new 0 0 128 128" xml:space="preserve">
<path fill="#FAFAFA" opacity="1.000000" stroke="none" 
	d="
M129.000000,67.000000 
	C129.000000,87.627617 129.000000,108.255241 129.000000,128.941437 
	C86.453056,128.941437 43.906017,128.941437 1.000000,128.941437 
	C1.000000,115.314529 1.000000,101.625923 1.347073,87.430511 
	C3.686380,84.773926 6.282313,82.932938 7.566984,80.421257 
	C13.317919,69.177559 20.904915,59.777931 31.779591,53.025036 
	C39.076744,48.493690 46.394756,43.820652 52.945244,38.309784 
	C59.978619,32.392670 74.545334,29.278173 82.593330,33.959881 
	C89.842728,38.177029 96.791786,43.010368 103.440247,48.133888 
	C110.788773,53.796898 117.593277,60.161827 124.774864,66.050125 
	C125.772301,66.867950 127.571800,66.707558 129.000000,67.000000 
M69.317474,98.310226 
	C71.202118,97.891403 73.086754,97.472572 75.261070,96.376808 
	C77.371819,94.461731 79.482567,92.546661 82.030914,90.234550 
	C80.322571,89.417130 78.752846,88.666031 77.136932,87.092278 
	C77.039848,80.014397 77.039848,80.014397 75.155159,79.729462 
	C75.036453,81.507195 74.918404,83.274986 74.760193,85.644203 
	C70.933350,84.924164 67.404457,84.260193 62.420403,83.322426 
	C63.386196,86.092697 64.228218,88.507942 65.031891,91.658463 
	C66.013206,93.388878 66.994514,95.119301 67.343048,96.975494 
	C67.898483,97.925186 68.453926,98.874886 69.695663,100.066101 
	C70.343498,99.959564 70.991325,99.853020 71.639160,99.746483 
	C71.631508,99.566032 71.623856,99.385590 71.616203,99.205147 
	C70.742607,99.142006 69.869003,99.078873 69.317474,98.310226 
M82.494789,51.373940 
	C84.300293,52.649307 86.105797,53.924675 88.206573,55.781345 
	C89.165062,55.492889 90.123558,55.204433 91.082047,54.915981 
	C90.057373,53.322674 89.032692,51.729370 87.280266,49.912540 
	C86.521599,49.932400 85.762924,49.952263 84.714157,49.542984 
	C84.118820,50.012886 83.523483,50.482792 82.494789,51.373940 
M64.822754,49.596897 
	C63.244614,48.408058 60.862766,45.881870 60.228256,46.263195 
	C57.562489,47.865250 55.217056,50.172787 53.237339,52.613758 
	C52.784168,53.172516 53.865379,55.986919 54.903584,56.558384 
	C58.301235,58.428562 61.873222,56.026871 64.822754,49.596897 
M66.848099,75.936111 
	C70.556984,78.474228 73.129379,76.199020 75.775337,73.999443 
	C74.875259,71.703255 74.264389,69.433105 73.109497,67.485558 
	C72.490944,66.442451 70.252197,65.093483 69.917007,65.359543 
	C68.076385,66.820572 66.132309,68.521759 65.174232,70.582405 
	C64.617409,71.780052 65.842804,73.806328 66.848099,75.936111 
M69.510590,36.128418 
	C66.695534,36.399891 63.880482,36.671364 61.065426,36.942837 
	C61.129501,37.593601 61.193577,38.244370 61.257648,38.895134 
	C67.673744,38.895134 74.089844,38.895134 80.400246,38.895134 
	C78.112175,35.371544 74.114853,36.221664 69.510590,36.128418 
z"/>
<path fill="#FFFFFF" opacity="1.000000" stroke="none" 
	d="
M129.000000,66.531342 
	C127.571800,66.707558 125.772301,66.867950 124.774864,66.050125 
	C117.593277,60.161827 110.788773,53.796898 103.440247,48.133888 
	C96.791786,43.010368 89.842728,38.177029 82.593330,33.959881 
	C74.545334,29.278173 59.978619,32.392670 52.945244,38.309784 
	C46.394756,43.820652 39.076744,48.493690 31.779591,53.025036 
	C20.904915,59.777931 13.317919,69.177559 7.566984,80.421257 
	C6.282313,82.932938 3.686380,84.773926 1.347073,86.961853 
	C1.000000,58.378174 1.000000,29.756348 1.000000,1.067261 
	C43.554996,1.067261 86.110123,1.067261 129.000000,1.067261 
	C129.000000,22.686413 129.000000,44.374550 129.000000,66.531342 
z"/>
<path fill="#E0BDCA" opacity="1.000000" stroke="none" 
	d="
M65.070236,90.923187 
	C64.228218,88.507942 63.386196,86.092697 62.420403,83.322426 
	C67.404457,84.260193 70.933350,84.924164 74.760193,85.644203 
	C74.918404,83.274986 75.036453,81.507195 75.155159,79.729462 
	C77.039848,80.014397 77.039848,80.014397 77.112305,87.911484 
	C75.779671,89.804497 74.541435,91.659966 73.148651,91.784317 
	C70.502563,92.020561 67.768036,91.266159 65.070236,90.923187 
z"/>
<path fill="#413F40" opacity="1.000000" stroke="none" 
	d="
M64.837753,49.968468 
	C61.873222,56.026871 58.301235,58.428562 54.903584,56.558384 
	C53.865379,55.986919 52.784168,53.172516 53.237339,52.613758 
	C55.217056,50.172787 57.562489,47.865250 60.228256,46.263195 
	C60.862766,45.881870 63.244614,48.408058 64.837753,49.968468 
z"/>
<path fill="#EDB7CB" opacity="1.000000" stroke="none" 
	d="
M66.557175,75.697922 
	C65.842804,73.806328 64.617409,71.780052 65.174232,70.582405 
	C66.132309,68.521759 68.076385,66.820572 69.917007,65.359543 
	C70.252197,65.093483 72.490944,66.442451 73.109497,67.485558 
	C74.264389,69.433105 74.875259,71.703255 75.775337,73.999443 
	C73.129379,76.199020 70.556984,78.474228 66.557175,75.697922 
z"/>
<path fill="#E9E7E8" opacity="1.000000" stroke="none" 
	d="
M65.051064,91.290825 
	C67.768036,91.266159 70.502563,92.020561 73.148651,91.784317 
	C74.541435,91.659966 75.779671,89.804497 77.135406,88.322815 
	C78.752846,88.666031 80.322571,89.417130 82.030914,90.234550 
	C79.482567,92.546661 77.371819,94.461731 74.680038,96.681641 
	C72.057945,96.940895 70.016884,96.895302 67.975830,96.849716 
	C66.994514,95.119301 66.013206,93.388878 65.051064,91.290825 
z"/>
<path fill="#929192" opacity="1.000000" stroke="none" 
	d="
M69.966614,36.128532 
	C74.114853,36.221664 78.112175,35.371544 80.400246,38.895134 
	C74.089844,38.895134 67.673744,38.895134 61.257648,38.895134 
	C61.193577,38.244370 61.129501,37.593601 61.065426,36.942837 
	C63.880482,36.671364 66.695534,36.399891 69.966614,36.128532 
z"/>
<path fill="#353334" opacity="1.000000" stroke="none" 
	d="
M87.911301,55.200043 
	C86.105797,53.924675 84.300293,52.649307 83.017929,51.143166 
	C84.028801,50.598972 84.516533,50.285549 85.004257,49.972122 
	C85.762924,49.952263 86.521599,49.932400 87.646057,50.355572 
	C87.978340,52.265751 87.944817,53.732895 87.911301,55.200043 
z"/>
<path fill="#2A2829" opacity="1.000000" stroke="none" 
	d="
M88.058937,55.490692 
	C87.944817,53.732895 87.978340,52.265751 88.009933,50.467335 
	C89.032692,51.729370 90.057373,53.322674 91.082047,54.915977 
	C90.123558,55.204433 89.165062,55.492889 88.058937,55.490692 
z"/>
<path fill="#757374" opacity="1.000000" stroke="none" 
	d="
M67.659439,96.912605 
	C70.016884,96.895302 72.057945,96.940895 74.535202,97.020111 
	C73.086754,97.472572 71.202118,97.891403 69.163818,98.865120 
	C69.010155,99.420013 69.009361,99.824577 69.009361,99.824577 
	C68.453926,98.874886 67.898483,97.925186 67.659439,96.912605 
z"/>
<path fill="#6F6D6E" opacity="1.000000" stroke="none" 
	d="
M84.859207,49.757553 
	C84.516533,50.285549 84.028801,50.598972 83.234604,50.932545 
	C83.523483,50.482792 84.118820,50.012886 84.859207,49.757553 
z"/>
<path fill="#6F6C6D" opacity="1.000000" stroke="none" 
	d="
M69.352509,99.945343 
	C69.009361,99.824577 69.010155,99.420013 69.002777,99.217880 
	C69.869003,99.078873 70.742607,99.142006 71.616203,99.205147 
	C71.623856,99.385590 71.631508,99.566032 71.639160,99.746483 
	C70.991325,99.853020 70.343498,99.959564 69.352509,99.945343 
z"/>
</svg>